<?xml version="1.0" standalone="no"?>
<!DOCTYPE svg PUBLIC "-//W3C//DTD SVG 20010904//EN"
 "http://www.w3.org/TR/2001/REC-SVG-20010904/DTD/svg10.dtd">
<svg version="1.0" xmlns="http://www.w3.org/2000/svg"
 width="864.000000pt" height="864.000000pt" viewBox="0 0 864.000000 864.000000"
 preserveAspectRatio="xMidYMid meet">

<g transform="translate(0.000000,864.000000) scale(0.100000,-0.100000)"
fill="#000000" stroke="none">
<path d="M4050 8634 c-19 -2 -91 -9 -160 -15 -253 -22 -600 -92 -858 -173
-1078 -339 -1972 -1077 -2516 -2076 -264 -484 -436 -1044 -498 -1620 -17 -166
-17 -694 0 -860 109 -1010 540 -1917 1247 -2625 710 -710 1611 -1137 2630
-1247 158 -17 692 -17 850 0 1019 110 1920 537 2630 1247 707 708 1138 1615
1247 2625 17 166 17 694 0 860 -127 1177 -697 2220 -1616 2954 -626 501 -1388
815 -2206 912 -126 15 -664 28 -750 18z m-324 -1199 c3 -13 21 -33 40 -44 42
-25 43 -39 3 -53 -21 -7 -36 -22 -45 -44 -8 -19 -21 -34 -29 -34 -8 0 -21 15
-29 34 -9 22 -24 37 -45 44 -41 14 -39 30 4 48 20 8 38 21 40 29 3 8 7 22 10
30 7 25 44 18 51 -10z m3123 -157 c5 -13 23 -36 41 -52 l33 -29 -24 -18 c-13
-10 -27 -19 -30 -19 -4 0 -12 -13 -19 -30 -15 -37 -45 -40 -54 -4 -4 14 -22
34 -41 46 -43 25 -44 33 -4 53 17 9 35 29 41 46 12 35 45 39 57 7z m-2079
-213 c647 -102 1177 -369 1624 -819 367 -370 610 -795 751 -1311 178 -656 98
-1395 -221 -2026 -228 -452 -585 -846 -1005 -1110 -152 -96 -464 -249 -506
-249 -9 0 -139 106 -209 170 l-41 37 -84 -18 c-110 -25 -264 -27 -307 -5 -108
56 -75 165 99 331 l84 80 3 -39 c3 -33 -2 -44 -31 -75 -53 -57 -67 -82 -67
-127 0 -34 5 -47 28 -64 25 -21 34 -22 137 -17 126 7 220 29 367 86 118 47
290 141 296 162 3 11 1 11 -7 -1 -10 -13 -11 -13 -12 0 0 10 -3 8 -9 -5 -5
-11 -9 -14 -9 -7 -1 10 -6 10 -21 2 -11 -6 -18 -16 -15 -23 4 -7 -3 -1 -14 12
-16 18 -21 20 -21 7 0 -9 5 -16 10 -16 6 0 10 -4 10 -10 0 -5 -8 -7 -17 -4
-15 5 -16 4 -3 -5 19 -13 1 -14 -20 -1 -10 6 -11 10 -2 10 6 0 12 5 12 11 0 5
-4 7 -10 4 -6 -3 -10 1 -10 10 0 9 4 14 9 11 5 -3 12 1 15 9 4 13 2 13 -14 5
-26 -14 -29 -13 -40 13 -8 20 -9 20 -10 2 0 -13 -3 -16 -8 -8 -5 8 -27 7 -87
-8 -96 -23 -118 -27 -170 -30 -22 -2 -46 -8 -54 -13 -11 -8 -13 -8 -7 2 5 9
-3 12 -31 12 -47 0 -84 19 -38 20 210 4 438 86 621 223 88 67 109 97 30 43
-136 -93 -367 -195 -452 -199 -19 -1 -34 -6 -34 -12 0 -5 -5 -3 -10 5 -6 10
-10 11 -10 3 0 -7 -5 -13 -11 -13 -5 0 -7 5 -4 10 3 6 1 10 -4 10 -6 0 -11 -6
-11 -12 0 -9 -4 -8 -10 2 -8 12 -10 12 -11 -5 l0 -20 -9 20 -9 20 -1 -20 c-1
-16 -3 -17 -8 -4 -4 9 -19 15 -39 14 -18 0 -32 4 -32 10 1 5 1 17 0 25 -1 13
-2 13 -11 0 -8 -12 -10 -10 -10 10 0 14 0 53 1 88 0 101 30 259 65 343 l15 35
35 -33 c49 -46 102 -59 186 -44 106 17 197 65 299 155 44 39 39 40 -13 4 -91
-63 -250 -118 -340 -118 -66 0 -129 27 -145 63 -8 17 -14 9 -41 -51 -18 -38
-44 -114 -58 -168 -23 -91 -25 -112 -21 -254 4 -120 10 -171 27 -228 30 -101
21 -123 -17 -42 -138 295 -70 673 171 952 123 142 288 248 466 298 97 28 317
38 426 20 77 -12 164 -43 164 -57 0 -16 -37 -63 -43 -56 -4 3 -7 2 -7 -3 0 -5
10 -15 23 -23 19 -12 20 -12 11 0 -8 11 -5 24 12 54 26 45 32 32 9 -18 -8 -18
-10 -24 -3 -14 7 10 18 26 24 34 21 30 35 5 18 -29 -14 -27 -14 -35 -4 -52 12
-20 12 -20 -5 -6 -17 14 -18 13 -13 -8 4 -12 3 -20 -1 -17 -5 2 -13 -7 -19
-20 -7 -15 -8 -26 -2 -30 6 -4 10 -12 10 -18 0 -7 -4 -6 -10 3 -9 13 -11 13
-19 1 -7 -10 -4 -19 7 -28 15 -13 14 -13 -7 -7 -16 4 -21 3 -17 -5 4 -6 3 -11
-3 -11 -6 0 -7 -7 -4 -17 4 -11 3 -14 -5 -9 -7 4 -12 5 -12 2 0 -2 -3 -13 -6
-23 -5 -15 -4 -16 6 -3 9 12 10 11 5 -7 -8 -28 11 -31 20 -3 3 11 11 20 16 20
6 0 7 5 3 12 -5 8 -2 9 9 5 11 -4 17 -1 17 7 0 7 9 23 20 36 11 13 20 29 20
37 0 7 5 13 11 13 6 0 9 7 6 14 -4 9 -1 13 6 11 14 -6 56 56 58 82 1 12 4 9 8
-7 4 -14 4 -27 1 -30 -15 -11 -49 -88 -42 -95 4 -5 1 -4 -7 0 -11 6 -13 4 -8
-8 4 -10 2 -16 -6 -14 -7 1 -12 -8 -11 -20 0 -15 -5 -23 -15 -23 -9 0 -12 -3
-6 -8 6 -4 17 -16 25 -27 14 -19 14 -20 -6 -2 -24 20 -41 23 -25 4 6 -8 8 -16
6 -19 -3 -3 -1 -17 5 -32 6 -18 6 -25 0 -21 -6 3 -10 12 -10 20 0 7 -7 15 -14
18 -11 4 -13 1 -9 -10 5 -12 3 -14 -6 -8 -10 6 -11 2 -6 -15 5 -16 4 -20 -5
-15 -7 4 -10 2 -9 -6 1 -8 -1 -22 -6 -32 -5 -12 -1 -25 14 -41 11 -12 21 -26
21 -31 0 -5 -7 0 -16 11 -11 14 -14 15 -11 3 3 -9 1 -22 -5 -30 -8 -11 -9 -10
-4 4 3 9 1 17 -3 17 -14 0 -20 -27 -9 -38 6 -6 8 -18 4 -28 -6 -15 -8 -15 -29
2 -22 19 -22 19 -4 -2 9 -11 14 -25 10 -30 -5 -5 6 4 24 20 20 18 29 34 26 44
-4 10 -2 13 5 8 14 -8 73 66 158 197 68 103 174 299 174 320 0 9 -21 11 -77 9
-58 -2 -83 1 -98 12 -19 14 -16 17 56 50 41 19 97 39 124 43 l49 8 36 101
c117 324 162 642 141 1000 -20 324 -69 552 -176 816 -87 213 -180 379 -310
553 -421 563 -1023 914 -1715 1001 -150 18 -405 18 -583 -1 -416 -46 -765
-162 -1088 -361 -128 -79 -149 -99 -149 -140 l0 -34 -54 20 c-79 30 -182 50
-258 50 -60 0 -70 3 -100 30 l-32 30 49 51 c61 62 179 156 301 237 383 257
858 420 1354 466 110 10 548 -3 650 -19z m2828 -17 c4 -19 12 -11 -273 -263
-126 -111 -311 -275 -410 -365 -99 -89 -187 -166 -196 -171 -11 -6 -21 -4 -28
5 -14 17 5 38 178 191 69 61 168 149 220 196 261 235 487 429 496 426 5 -2 11
-11 13 -19z m-4788 -1181 c0 55 -33 114 -101 178 -70 65 -71 90 -1 38 79 -60
119 -128 128 -222 6 -51 12 -67 37 -91 17 -16 32 -29 33 -27 6 6 -16 149 -26
167 -5 10 -10 26 -10 36 0 56 -149 171 -266 207 -41 12 -74 26 -74 31 0 12 99
-1 157 -20 27 -9 71 -32 100 -51 157 -104 376 -422 428 -618 30 -116 15 -145
-75 -145 -83 0 -199 33 -319 91 -104 50 -129 80 -34 40 118 -50 306 -91 337
-74 13 7 0 24 -72 96 l-88 88 -50 -23 c-66 -29 -194 -36 -288 -14 -194 46
-349 193 -363 344 l-4 47 20 -35 c54 -94 182 -200 279 -231 69 -22 179 -28
235 -12 l28 8 -78 75 c-43 42 -118 111 -168 155 -343 306 -519 486 -663 679
-88 120 -263 393 -281 439 -2 5 263 -257 588 -583 381 -382 591 -585 591 -573z
m3721 1112 c18 -18 19 -23 6 -42 -27 -40 -69 -29 -69 18 0 25 15 44 35 45 4 0
16 -9 28 -21z m-4066 -80 c0 -15 -7 -25 -18 -27 -22 -4 -33 24 -17 43 18 21
35 13 35 -16z m3963 -33 c2 -10 -1 -23 -8 -30 -17 -17 -44 22 -28 41 14 17 32
12 36 -11z m-4945 -105 c23 -15 97 -63 165 -104 207 -129 411 -290 605 -477
97 -94 177 -179 177 -187 0 -9 -9 -30 -20 -48 l-20 -33 55 -56 c77 -78 122
-99 202 -94 48 3 63 1 63 -9 0 -37 -112 -43 -179 -11 -53 25 -161 128 -161
153 0 9 -4 14 -10 10 -5 -3 -47 32 -92 78 -46 45 -164 157 -263 247 -196 179
-585 560 -572 560 5 0 27 -13 50 -29z m5287 -16 c-36 -43 -189 -174 -194 -166
-6 9 181 179 198 180 5 1 3 -6 -4 -14z m-2052 -161 c37 -15 85 -39 107 -54 22
-15 58 -36 80 -48 43 -22 98 -74 93 -88 -2 -5 10 -26 27 -46 28 -36 30 -36 50
-20 11 9 15 10 8 3 -6 -7 -9 -20 -6 -29 4 -9 2 -13 -4 -9 -5 3 -10 0 -10 -8 0
-10 5 -11 16 -6 8 5 24 5 35 1 12 -5 33 -11 47 -14 14 -3 43 -20 65 -37 32
-26 34 -30 14 -24 -24 7 -24 7 -7 -12 32 -36 17 -36 -23 1 -22 20 -47 36 -55
36 -8 0 -20 9 -27 20 -7 11 -17 20 -22 20 -15 0 27 -42 51 -51 13 -5 21 -14
19 -21 -1 -7 -1 -10 1 -5 9 15 25 6 19 -10 -4 -10 -4 -14 0 -10 8 8 64 -41 64
-56 0 -6 -10 -2 -22 9 l-23 19 19 -22 c10 -13 22 -20 27 -17 11 6 40 -39 42
-65 1 -12 7 -21 14 -21 17 0 -7 60 -43 107 -14 18 -20 33 -15 33 6 0 8 7 5 15
-7 17 21 21 31 5 4 -6 -1 -7 -12 -3 -17 6 1 -20 62 -89 8 -10 11 -18 5 -18 -5
0 -22 18 -36 40 -15 22 -29 38 -32 36 -6 -7 58 -86 70 -86 7 0 6 -5 -1 -14 -8
-9 -8 -16 -2 -20 5 -4 8 -15 6 -26 -2 -12 -1 -18 4 -16 4 3 13 1 21 -5 12 -7
11 -9 -5 -10 l-20 0 20 -9 c19 -8 18 -9 -4 -9 -33 -1 -22 -10 17 -15 18 -2 32
1 32 7 0 6 2 8 5 5 10 -10 -6 -36 -26 -41 -10 -3 -17 -1 -14 3 9 15 -16 23
-28 10 -9 -10 -9 -11 1 -6 7 5 12 1 12 -9 0 -9 -4 -14 -8 -11 -5 3 -7 -15 -6
-40 2 -24 1 -44 -1 -44 -8 0 -32 58 -29 73 1 9 -3 17 -9 17 -7 0 -5 5 3 10 13
8 12 10 -2 10 -21 0 -22 -4 -8 -31 7 -13 7 -19 0 -19 -5 0 -9 -6 -7 -12 1 -7
-3 -12 -9 -11 -6 1 -10 -8 -10 -20 1 -13 -4 -21 -12 -19 -8 1 -11 -2 -7 -9 9
-14 -45 -70 -59 -62 -6 3 -8 2 -3 -2 4 -5 -10 -27 -30 -49 -21 -22 -31 -35
-22 -28 14 10 18 9 23 -4 4 -10 2 -22 -4 -28 -8 -8 -9 -6 -4 8 6 16 5 17 -14
7 -12 -7 -22 -16 -22 -21 0 -5 -7 -7 -15 -3 -10 3 -15 0 -13 -8 4 -21 21 -30
30 -16 4 7 6 3 6 -10 -2 -19 -4 -20 -25 -6 -31 21 -50 6 -22 -18 12 -10 17
-19 10 -19 -7 0 -9 -5 -5 -12 6 -10 4 -10 -7 0 -17 16 -31 15 -55 -4 -10 -8
-13 -13 -6 -9 10 5 11 0 6 -21 -5 -21 -4 -25 6 -19 10 6 11 4 4 -6 -5 -8 -7
-23 -5 -34 3 -20 3 -20 -12 0 -9 11 -19 17 -23 12 -4 -4 -2 -7 4 -7 7 0 12 -8
12 -17 0 -15 -2 -16 -10 -3 -8 12 -10 12 -10 1 0 -11 -5 -9 -22 5 -12 10 -18
13 -13 5 6 -11 4 -13 -10 -7 -13 5 -15 3 -8 -6 12 -16 13 -49 1 -42 -14 9 -9
-9 10 -30 l17 -21 -24 20 c-20 16 -23 17 -18 3 6 -17 -8 -19 -32 -3 -10 5 -16
4 -19 -3 -2 -7 -10 -12 -18 -12 -8 0 -14 -5 -14 -12 0 -6 -2 -9 -5 -6 -9 8 6
38 16 32 5 -3 6 3 2 12 -4 11 -8 13 -11 6 -2 -7 -8 -10 -13 -6 -5 3 -9 2 -8
-3 3 -20 -2 -27 -11 -13 -8 13 -10 12 -11 -5 -1 -11 -1 -24 0 -28 1 -5 -3 -6
-9 -2 -6 3 -8 10 -6 14 3 4 -4 13 -15 19 -19 12 -19 11 -9 -8 13 -25 3 -26
-17 -2 -9 10 -8 5 2 -12 12 -21 13 -27 3 -24 -7 3 -17 -3 -23 -12 -9 -16 -11
-17 -25 -2 -13 14 -12 15 3 9 18 -7 24 7 8 18 -6 3 -19 -4 -30 -16 -17 -18
-28 -21 -66 -17 -33 4 -45 2 -45 -8 0 -7 -5 -16 -12 -20 -8 -5 -9 -2 -5 10 4
10 3 15 -3 11 -6 -3 -10 -12 -10 -18 0 -15 -37 -20 -45 -6 -3 5 0 6 8 3 8 -3
18 0 23 7 4 8 3 10 -4 5 -7 -4 -12 -1 -12 8 0 9 -4 16 -10 16 -5 0 -10 8 -11
18 0 13 -2 12 -9 -6 -5 -12 -7 -28 -4 -35 2 -7 -4 -13 -16 -14 -11 -1 -20 3
-20 8 0 6 5 7 12 3 7 -4 8 -3 4 4 -4 7 -18 11 -31 10 -13 -1 -22 -5 -19 -9 2
-4 -1 -11 -7 -15 -8 -4 -9 -3 -5 4 4 7 2 12 -4 12 -6 0 -8 5 -5 10 4 7 -3 9
-18 6 -21 -4 -24 -1 -20 17 3 16 2 18 -5 9 -7 -11 -14 -9 -31 10 -14 14 -20
17 -16 7 4 -10 1 -20 -5 -24 -6 -3 -10 -3 -9 2 1 4 -3 19 -10 33 -11 24 -11
24 -7 2 4 -23 4 -23 -14 -7 -11 10 -17 22 -14 26 3 5 0 9 -6 9 -6 0 -9 4 -6 9
4 5 -4 7 -16 3 -16 -4 -18 -7 -8 -10 22 -7 30 -25 18 -39 -11 -14 -28 -8 -28
10 0 8 3 8 9 -2 5 -8 11 -9 15 -3 9 15 -26 25 -37 10 -6 -9 -7 -6 -4 10 3 14
1 20 -6 15 -7 -4 -8 0 -4 13 7 18 6 18 -7 2 -19 -25 -24 -22 -22 11 2 24 -1
27 -18 23 -11 -3 -15 -7 -8 -10 6 -2 12 -10 12 -19 0 -13 -2 -13 -15 1 -9 8
-12 22 -8 32 5 14 3 16 -11 11 -14 -6 -17 -3 -12 8 3 10 2 13 -5 10 -5 -4 -8
-19 -6 -33 2 -15 2 -21 0 -14 -3 6 -11 12 -18 12 -7 0 -16 -6 -18 -12 -3 -7
-9 3 -13 22 -6 29 -8 31 -16 15 -8 -20 -8 -20 -5 0 2 11 9 19 15 18 7 -2 12 7
12 20 0 16 -3 18 -9 9 -7 -11 -9 -11 -14 2 -4 9 -2 16 3 16 6 0 10 8 9 18 0
10 -3 12 -6 5 -7 -19 -33 -15 -33 5 0 13 2 14 9 4 7 -11 9 -10 14 3 5 11 3 14
-5 9 -8 -5 -9 -1 -5 12 7 18 6 18 -7 2 -15 -20 -36 -24 -36 -7 0 5 -4 7 -10 4
-14 -8 0 58 14 68 6 4 -1 5 -16 3 -17 -3 -28 0 -29 7 0 7 -4 3 -9 -8 -7 -15
-8 -11 -5 16 2 24 -1 36 -10 36 -7 0 -11 -7 -8 -16 3 -11 0 -10 -7 3 -10 14
-10 20 0 26 8 5 5 9 -9 13 -12 3 -19 2 -16 -2 2 -4 -2 -8 -10 -8 -8 0 -12 4
-10 8 9 13 -7 39 -23 39 -13 0 -12 -3 4 -16 18 -14 18 -15 -3 -4 -13 6 -22 14
-22 18 4 24 -2 42 -13 36 -7 -4 -8 -3 -4 5 5 8 0 10 -18 7 -15 -3 -24 -1 -21
5 4 5 11 6 17 3 7 -5 9 -1 5 9 -4 12 -2 14 10 10 10 -4 14 -2 10 4 -4 6 -2 13
5 15 14 5 2 28 -15 28 -7 0 -6 -4 3 -10 8 -5 13 -10 10 -11 -3 0 -13 -2 -23
-4 -9 -2 -15 1 -11 6 7 12 -3 11 -26 -1 -13 -7 -21 -7 -26 2 -4 6 -3 8 3 5 6
-4 14 0 17 9 3 9 13 14 21 10 19 -7 30 13 16 27 -9 9 -14 8 -22 -3 -9 -12 -10
-10 -6 8 5 19 3 21 -9 11 -12 -10 -13 -9 -8 6 5 13 4 16 -4 11 -7 -4 -12 -2
-12 4 0 8 10 10 28 6 20 -5 23 -4 12 4 -19 12 -50 13 -50 1 0 -5 -3 -17 -7
-27 -5 -13 -3 -15 7 -9 9 5 11 4 6 -4 -12 -18 -28 -2 -20 21 5 17 3 20 -12 14
-12 -5 -15 -4 -9 2 14 14 87 33 80 21 -4 -5 -1 -9 5 -9 7 0 9 8 5 21 -5 16 -4
20 6 14 8 -3 3 3 -10 14 -21 19 -65 31 -47 14 4 -5 13 -8 19 -8 5 0 12 -7 14
-15 3 -9 1 -11 -4 -5 -4 6 -17 11 -28 13 l-20 3 20 -17 c16 -14 17 -16 3 -11
-10 4 -18 3 -18 -2 0 -5 -8 -11 -19 -14 -14 -3 -17 0 -14 14 3 11 9 19 15 19
5 0 4 10 -3 21 -6 13 -7 19 -1 15 6 -3 13 0 16 6 3 7 3 2 1 -12 -5 -22 -3 -21
12 7 13 22 22 30 31 24 8 -5 13 -12 12 -17 -1 -5 4 -10 12 -12 9 -2 8 0 -2 7
-15 10 -13 12 12 15 6 0 12 10 14 21 2 11 8 21 14 23 6 2 19 21 30 41 24 48
117 134 189 174 31 18 57 31 59 29 7 -7 50 51 46 63 -3 7 0 16 7 21 8 5 10 3
5 -7 -4 -8 1 -4 12 9 11 12 24 22 29 22 5 0 19 13 31 30 41 56 159 118 262
140 77 16 213 4 288 -26z m1792 -64 c0 -5 -4 -10 -10 -10 -5 0 -10 5 -10 10 0
6 5 10 10 10 6 0 10 -4 10 -10z m-2521 -23 c-2 -1 -37 -31 -76 -66 -73 -63
-83 -68 -62 -30 12 23 129 112 137 104 3 -3 3 -6 1 -8z m-2739 -74 c42 -48 41
-94 -4 -139 -46 -46 -104 -48 -147 -5 -55 55 -29 160 44 179 47 12 73 4 107
-35z m2422 30 c22 -20 23 -42 2 -71 -18 -26 -50 -28 -76 -5 -22 20 -23 51 -1
75 20 22 51 23 75 1z m3688 -37 c0 -5 -248 -219 -265 -229 -39 -22 7 27 118
125 104 91 147 122 147 104z m-3286 -22 c3 -8 2 -12 -4 -9 -6 3 -10 10 -10 16
0 14 7 11 14 -7z m951 -14 c4 -6 11 -8 16 -4 5 3 9 2 8 -3 -5 -30 2 -35 23
-17 l22 19 -20 -26 -19 -26 -14 21 c-9 11 -22 26 -31 33 -9 8 -10 12 -3 13 6
0 15 -5 18 -10z m392 -91 c45 -28 85 -54 88 -60 4 -5 -20 6 -52 25 -32 18 -95
51 -140 71 -46 21 -83 42 -83 46 0 14 100 -30 187 -82z m-1428 48 c9 3 -6 -9
-32 -27 -39 -26 -51 -30 -57 -20 -5 8 -6 19 -3 24 4 6 8 5 11 -2 5 -16 22 -16
18 1 -1 6 -1 9 1 5 3 -5 9 -8 14 -8 6 0 7 5 4 10 -10 15 5 34 17 22 6 -6 18
-8 27 -5z m-95 -56 c3 -4 -21 -35 -54 -68 -33 -33 -60 -57 -60 -54 0 3 -9 -13
-20 -37 -11 -24 -25 -49 -32 -56 -14 -14 -38 -10 -38 5 0 6 5 7 12 3 6 -4 8
-3 5 2 -3 6 1 24 10 42 13 27 18 30 31 20 13 -12 14 -10 3 11 -8 15 -9 21 -2
17 6 -4 11 -3 11 3 0 18 60 72 72 65 6 -4 8 -3 5 3 -3 5 1 19 9 31 16 23 39
29 48 13z m-644 -18 c0 -8 -174 -133 -185 -133 -20 0 6 27 78 79 76 56 107 72
107 54z m-1602 -75 c-2 -15 -11 -24 -25 -26 -19 -3 -23 1 -23 22 0 21 5 26 26
26 21 0 25 -4 22 -22z m2039 -109 c-13 -21 -23 -24 -32 -9 -9 15 1 25 24 27
18 2 19 -1 8 -18z m1704 -12 c-5 -5 -7 -16 -4 -23 3 -10 -2 -14 -18 -13 -18 0
-20 2 -8 7 9 4 15 14 14 23 -2 9 4 16 11 16 9 0 11 -4 5 -10z m-3247 -66 c8
-15 20 -57 25 -91 6 -36 29 -102 52 -151 l42 -88 -25 -33 c-32 -43 -126 -204
-172 -295 -126 -252 -218 -581 -247 -883 -15 -162 -6 -445 20 -618 96 -632
395 -1183 851 -1564 356 -298 791 -493 1275 -571 109 -17 177 -21 415 -21
l285 -1 47 -33 c26 -18 72 -42 102 -53 42 -16 74 -40 130 -98 42 -42 72 -79
68 -82 -4 -4 -70 -18 -147 -33 -406 -76 -883 -54 -1302 59 -351 96 -789 323
-1063 553 -110 92 -321 306 -401 407 -410 516 -632 1148 -633 1800 0 382 61
715 195 1068 78 204 207 443 306 564 22 26 65 81 97 121 31 39 59 72 61 72 3
0 11 -13 19 -29z m3261 19 c-3 -5 -14 -10 -23 -11 -14 0 -13 -2 3 -9 16 -7 17
-9 3 -9 -25 -1 -31 16 -11 28 23 13 36 14 28 1z m52 -25 c5 -4 2 -5 -6 0 -11
6 -13 4 -8 -11 7 -18 6 -18 -6 -2 -8 10 -18 14 -22 10 -5 -4 -5 -2 -2 5 8 12
32 12 44 -2z m308 5 c10 -15 -5 -50 -20 -50 -17 0 -34 30 -28 48 6 14 39 16
48 2z m1265 -25 c0 -8 -7 -15 -15 -15 -8 0 -15 7 -15 15 0 8 7 15 15 15 8 0
15 -7 15 -15z m-1545 -34 c3 -5 2 -12 -3 -15 -5 -3 -9 1 -9 9 0 17 3 19 12 6z
m-2328 -17 c9 -23 -11 -38 -26 -20 -13 16 -7 36 10 36 5 0 12 -7 16 -16z
m2287 -20 c3 -8 2 -12 -4 -9 -6 3 -10 10 -10 16 0 14 7 11 14 -7z m-40 -22 c2
-4 -5 -9 -17 -9 -17 -2 -19 0 -7 7 18 12 18 12 24 2z m-45 -107 c0 -5 -3 -4
-6 3 -8 21 -26 13 -20 -10 6 -22 6 -22 -9 -4 -9 13 -11 23 -5 29 7 7 6 18 0
31 -7 13 -1 9 15 -9 14 -16 25 -34 25 -40z m2086 15 c14 -22 36 -42 50 -46 46
-11 48 -30 6 -46 -30 -12 -44 -25 -55 -52 -12 -29 -20 -36 -44 -36 -23 0 -32
7 -45 36 -13 25 -29 40 -58 52 -46 18 -46 33 0 46 22 6 41 23 57 48 32 50 57
49 89 -2z m-1497 8 c7 -7 12 -17 12 -24 0 -7 -75 -79 -166 -161 -101 -90 -174
-163 -185 -186 -25 -47 -62 -64 -95 -42 -45 29 -26 100 29 110 22 5 84 52 207
161 96 84 177 153 181 154 3 0 10 -5 17 -12z m-623 -66 c-8 -8 -25 10 -25 26
0 13 2 13 14 -4 8 -10 13 -21 11 -22z m-38 22 c-3 -4 -1 -16 5 -28 10 -20 9
-20 -7 -4 -15 14 -14 38 2 38 4 0 3 -3 0 -6z m-1867 -19 c19 -23 8 -50 -20
-50 -16 0 -26 6 -28 18 -4 18 14 47 28 47 4 0 13 -7 20 -15z m1851 -22 c13
-16 12 -17 -3 -4 -17 13 -22 21 -14 21 2 0 10 -8 17 -17z m-17 -19 c3 -8 2
-12 -4 -9 -6 3 -10 10 -10 16 0 14 7 11 14 -7z m859 -52 c67 -88 167 -237 167
-250 0 -22 -19 -12 -34 16 -8 15 -55 85 -105 154 -83 115 -108 160 -81 143 5
-3 29 -32 53 -63z m-889 46 c-3 -4 1 -8 8 -8 7 -1 3 -6 -10 -13 -12 -7 -19
-16 -16 -20 4 -4 5 -7 2 -7 -3 0 -13 9 -23 20 -17 19 -17 19 5 15 15 -3 20 0
17 9 -3 7 1 13 9 13 7 0 11 -4 8 -9z m1081 -68 c8 -13 -14 -42 -26 -34 -5 3
-9 14 -9 25 0 20 24 26 35 9z m-2375 -18 c0 -5 -7 -9 -15 -9 -8 0 -12 4 -9 9
3 4 9 8 15 8 5 0 9 -4 9 -8z m1410 -7 c15 -18 6 -45 -14 -45 -16 0 -31 34 -21
50 9 14 21 12 35 -5z m-1622 -42 c-3 -31 -34 -44 -44 -19 -9 24 3 46 26 46 17
0 21 -5 18 -27z m1360 -44 c3 -12 2 -12 -6 0 -8 11 -10 11 -15 0 -4 -10 -6 -8
-6 4 -1 21 21 18 27 -4z m-1078 -44 c0 -5 -5 -3 -10 5 -5 8 -10 20 -10 25 0 6
5 3 10 -5 5 -8 10 -19 10 -25z m1067 3 c-3 -8 -6 -5 -6 6 -1 11 2 17 5 13 3
-3 4 -12 1 -19z m858 -58 c11 -17 -6 -50 -25 -50 -19 0 -36 33 -25 50 3 5 15
10 25 10 10 0 22 -5 25 -10z m-555 -50 c0 -5 -4 -10 -10 -10 -5 0 -10 5 -10
10 0 6 5 10 10 10 6 0 10 -4 10 -10z m-3042 -91 c-24 -41 -49 -86 -55 -101
-11 -25 -33 -39 -33 -21 0 11 71 137 97 171 42 55 37 29 -9 -49z m4041 -41
c62 -131 86 -196 77 -205 -3 -3 -13 14 -23 38 -9 24 -43 96 -74 161 -50 101
-59 128 -42 128 3 0 30 -55 62 -122z m-2113 67 c1 -8 -1 -15 -6 -15 -10 0 -20
26 -13 34 8 8 16 -1 19 -19z m28 -11 c3 -8 2 -12 -4 -9 -6 3 -10 10 -10 16 0
14 7 11 14 -7z m46 1 c11 -13 10 -14 -5 -9 -14 6 -16 4 -10 -6 5 -8 4 -11 -3
-6 -6 4 -9 13 -5 21 7 19 8 19 23 0z m175 -15 c3 -5 1 -10 -4 -10 -6 0 -11 5
-11 10 0 6 2 10 4 10 3 0 8 -4 11 -10z m145 -69 c30 -2 398 -5 818 -8 l762 -4
0 -225 0 -224 -27 0 c-16 0 -301 0 -635 0 l-608 0 0 -270 0 -270 569 0 c313 0
576 -3 585 -6 14 -5 16 -35 16 -230 l0 -224 -552 -2 c-304 -1 -566 -2 -583 -3
l-30 -1 -3 -397 -2 -397 -220 0 -220 0 0 1124 0 1125 23 7 c12 5 25 7 30 6 4
-1 7 4 7 11 0 7 3 8 8 2 4 -6 32 -12 62 -14z m-1460 -25 c310 -37 547 -150
737 -349 212 -223 316 -509 300 -822 -15 -293 -124 -533 -334 -736 -123 -119
-235 -188 -408 -248 -165 -59 -280 -72 -657 -78 l-338 -6 0 1127 0 1126 293 0
c183 -1 335 -6 407 -14z m1025 -61 c0 -25 -40 -33 -49 -10 -9 24 2 37 27 33
14 -2 22 -10 22 -23z m-2062 -219 c-18 -60 -33 -96 -42 -96 -7 0 -11 6 -8 13
2 6 12 39 22 72 18 64 44 120 51 112 3 -2 -8 -48 -23 -101z m4367 -71 c17 -71
50 -247 50 -267 0 -10 -4 -18 -9 -18 -4 0 -14 35 -21 77 -7 43 -23 118 -36
167 -21 83 -23 120 -4 99 4 -4 13 -30 20 -58z m-4418 -141 c-8 -51 -14 -295
-8 -318 4 -15 28 -47 54 -72 l47 -44 -37 -32 c-21 -18 -51 -50 -67 -71 l-29
-37 -20 32 c-12 18 -39 51 -61 73 -23 21 -41 42 -41 46 0 3 17 18 39 33 51 36
60 60 72 190 5 61 14 135 19 165 6 30 10 56 10 59 0 2 6 2 13 -1 6 -2 11 -13
9 -23z m3944 -176 c15 -33 6 -57 -22 -64 -47 -12 -72 14 -60 61 9 35 68 36 82
3z m-3771 -23 c0 -23 -5 -31 -22 -33 -17 -3 -24 3 -29 23 -4 18 -2 30 7 36 25
16 44 5 44 -26z m2979 20 c8 -21 -3 -45 -20 -45 -8 0 -17 7 -20 15 -8 21 2 45
20 45 7 0 16 -7 20 -15z m291 -5 c15 -17 16 -24 7 -45 -20 -43 -82 -28 -82 20
0 45 44 59 75 25z m1185 -110 c11 -22 38 -52 60 -66 22 -15 40 -31 40 -37 0
-6 -20 -29 -44 -51 -24 -23 -51 -53 -61 -68 l-17 -27 -61 66 c-34 36 -63 71
-65 79 -2 7 15 25 38 40 22 15 50 44 62 65 12 22 23 39 25 39 1 0 12 -18 23
-40z m-425 -65 c0 -23 -4 -30 -20 -30 -21 0 -31 25 -21 51 11 28 41 12 41 -21z
m-4007 -267 c-2 -13 -7 -23 -13 -23 -5 0 -11 10 -13 23 -2 15 2 22 13 22 11 0
15 -7 13 -22z m4297 -144 c-6 -82 -16 -116 -31 -102 -4 5 13 159 22 198 12 47
16 -1 9 -96z m-4485 -116 c12 -75 43 -232 55 -280 4 -17 3 -28 -3 -28 -16 0
-82 288 -82 358 0 49 19 18 30 -50z m4449 -204 c-12 -50 -29 -81 -29 -53 0 21
31 111 37 106 2 -3 -1 -26 -8 -53z m-1303 -69 c4 -9 18 -22 33 -30 l26 -13
-27 -11 c-14 -5 -29 -19 -33 -30 -8 -27 -25 -27 -25 -1 0 11 -8 23 -17 26 -10
3 -25 8 -33 11 -10 3 -4 9 18 18 17 8 32 21 32 30 0 19 19 20 26 0z m497 9 c9
-10 -4 -34 -19 -34 -8 0 -14 9 -14 20 0 19 19 27 33 14z m369 -11 c22 -20 23
-41 1 -65 -20 -22 -51 -23 -75 -1 -22 20 -23 46 -2 67 20 21 53 20 76 -1z
m-3898 -188 c27 -68 31 -85 18 -85 -6 0 -24 40 -58 133 -3 9 -2 17 4 17 5 0
22 -29 36 -65z m4204 32 c4 -20 -25 -34 -39 -20 -14 14 1 45 20 41 9 -2 17
-11 19 -21z m-4089 -298 c23 -44 40 -83 37 -87 -8 -7 -7 -8 -55 79 -43 79 -46
89 -32 89 4 0 27 -36 50 -81z m5323 -40 l39 -28 -32 -17 c-18 -9 -50 -34 -70
-56 l-37 -40 -39 43 c-21 23 -51 50 -67 60 l-28 17 30 16 c17 9 48 36 68 61
l38 45 30 -36 c16 -20 47 -49 68 -65z m-6464 63 c17 -22 15 -52 -5 -74 -33
-37 -93 -10 -93 43 0 52 65 73 98 31z m5142 -137 c0 -5 -5 -3 -10 5 -5 8 -10
20 -10 25 0 6 5 3 10 -5 5 -8 10 -19 10 -25z m880 -55 c0 -5 -4 -10 -10 -10
-5 0 -10 5 -10 10 0 6 5 10 10 10 6 0 10 -4 10 -10z m-2969 -159 c10 -82 25
-129 36 -117 3 3 0 12 -7 21 -7 9 -11 18 -8 21 3 3 15 -10 27 -28 11 -18 21
-27 21 -20 0 8 6 12 13 9 6 -2 31 9 55 25 23 16 42 26 42 22 0 -4 11 3 25 16
14 13 27 21 30 18 3 -3 -24 -30 -59 -60 -50 -43 -62 -58 -53 -67 9 -9 7 -10
-8 -5 -18 7 -19 6 -5 -11 8 -10 10 -16 3 -12 -11 7 -12 -2 -4 -56 0 -5 29 -38
64 -74 l62 -66 -63 42 c-34 23 -66 40 -71 37 -5 -3 -8 2 -7 11 0 9 -5 18 -12
20 -7 3 -12 1 -11 -4 4 -20 -2 -34 -11 -28 -6 4 -7 11 -4 17 4 7 2 8 -4 4 -7
-4 -12 -15 -13 -24 -1 -11 -4 -8 -9 8 -5 17 -8 19 -9 8 -1 -10 -7 -18 -13 -18
-9 0 -8 -4 2 -10 8 -5 10 -10 3 -10 -7 0 -13 -40 -18 -116 -8 -124 -25 -139
-25 -22 0 80 -16 163 -36 183 -12 12 -22 9 -75 -21 -34 -19 -64 -34 -67 -34
-3 0 -15 -8 -26 -17 -12 -10 -6 -1 13 19 19 21 39 34 45 31 6 -3 8 -2 3 2 -4
5 5 21 19 36 31 32 25 53 -11 39 -23 -9 -24 -8 -13 10 7 10 17 16 23 13 5 -4
7 -3 3 2 -4 4 3 16 15 27 20 17 19 17 -15 -2 -38 -19 -38 -19 -26 0 7 11 18
20 25 20 25 0 12 16 -57 75 -69 58 -92 83 -47 51 32 -23 155 -96 161 -96 3 0
6 7 6 15 0 8 6 14 13 13 7 -2 11 6 9 21 -2 19 0 21 12 12 11 -9 14 -3 20 35 3
26 6 64 6 84 0 21 3 53 7 71 l8 34 3 -35 c1 -19 7 -73 13 -119z m-241 109 c0
-5 -4 -10 -10 -10 -5 0 -10 5 -10 10 0 6 5 10 10 10 6 0 10 -4 10 -10z m-246
-32 c8 -14 6 -22 -10 -38 -33 -33 -73 -4 -58 42 7 24 52 21 68 -4z m-1198 -65
c68 -94 302 -327 398 -397 178 -131 390 -249 594 -330 40 -16 71 -31 69 -33
-7 -6 -122 34 -195 68 -35 16 -65 29 -67 29 -12 0 -240 129 -304 172 -124 84
-259 198 -369 313 -90 95 -192 221 -192 239 0 19 22 -1 66 -61z m292 20 c5
-10 7 -24 5 -30 -6 -18 -42 -16 -49 2 -15 38 26 63 44 28z m-1563 -61 c-86
-82 -274 -254 -314 -288 -22 -19 -29 -22 -21 -9 14 22 380 355 389 355 4 0
-21 -26 -54 -58z m5055 37 c0 -6 -4 -7 -10 -4 -5 3 -10 11 -10 16 0 6 5 7 10
4 6 -3 10 -11 10 -16z m38 -24 c-3 -3 -9 2 -12 12 -6 14 -5 15 5 6 7 -7 10
-15 7 -18z m-52 -22 c-3 -4 -6 0 -7 8 -1 8 -4 3 -9 -11 -6 -21 -8 -22 -14 -8
-5 10 -2 23 6 31 11 13 14 13 21 0 5 -8 6 -17 3 -20z m34 17 c0 -5 -2 -10 -4
-10 -3 0 -8 5 -11 10 -3 6 -1 10 4 10 6 0 11 -4 11 -10z m-3145 -45 c49 -49
22 -145 -45 -160 -94 -21 -149 112 -71 172 28 22 89 16 116 -12z m925 -5 c6
-11 8 -20 6 -20 -3 0 -10 9 -16 20 -6 11 -8 20 -6 20 3 0 10 -9 16 -20z m3160
-35 c59 -31 69 -107 21 -156 -58 -57 -141 -28 -157 56 -7 41 14 80 57 102 31
16 44 16 79 -2z m-5650 -46 c0 -12 -307 -299 -541 -507 -48 -43 -79 -50 -79
-19 0 8 134 136 297 285 227 207 300 268 310 260 7 -6 13 -14 13 -19z m2060
-34 c15 -18 8 -40 -19 -55 -18 -9 -23 -7 -32 14 -7 14 -9 32 -6 40 8 20 41 21
57 1z m-227 -138 c106 -73 229 -157 274 -187 46 -29 81 -55 79 -57 -13 -14
-510 261 -585 324 -8 6 18 53 29 53 6 0 97 -60 203 -133z m1197 -53 c0 -8 -4
-14 -9 -14 -11 0 -22 26 -14 34 9 9 23 -3 23 -20z m-2910 -123 c0 -7 -146
-143 -392 -365 -54 -48 -98 -82 -97 -74 1 12 111 117 364 347 107 97 125 110
125 92z m2775 -66 c0 -25 -4 -30 -25 -30 -28 0 -39 27 -19 51 20 24 44 13 44
-21z m879 -121 c3 -8 2 -12 -4 -9 -6 3 -10 10 -10 16 0 14 7 11 14 -7z m86 -2
c0 -13 -2 -14 -9 -4 -7 11 -9 11 -14 -2 -4 -9 -12 -16 -19 -16 -9 0 -9 3 2 11
12 8 10 10 -10 5 -22 -4 -23 -3 -9 7 26 19 59 19 59 -1z m-77 -23 c18 -1 18
-2 4 -6 -20 -5 -47 13 -47 31 0 6 5 3 11 -6 5 -10 20 -19 32 -19z m94 -1 c-3
-7 -5 -2 -5 12 0 14 2 19 5 13 2 -7 2 -19 0 -25z m-3534 -5 c8 -14 -12 -53
-28 -53 -18 0 -30 24 -21 45 6 15 41 21 49 8z m3402 -3 c3 -6 -1 -7 -9 -4 -18
7 -21 14 -7 14 6 0 13 -4 16 -10z m-204 -23 c-10 -9 -11 -8 -5 6 3 10 9 15 12
12 3 -3 0 -11 -7 -18z m334 3 c3 -6 -1 -7 -9 -4 -18 7 -21 14 -7 14 6 0 13 -4
16 -10z m-3279 -132 c23 -47 72 -96 119 -120 l39 -20 -34 -18 c-47 -24 -106
-83 -129 -128 l-19 -36 -20 39 c-24 48 -62 85 -121 118 l-44 25 44 22 c56 28
96 65 120 113 11 20 21 37 24 37 2 0 12 -15 21 -32z m2184 12 c0 -6 -28 -9
-67 -9 -56 1 -62 3 -33 9 53 11 100 11 100 0z m-2622 -322 c35 -35 -15 -99
-53 -68 -30 25 -12 80 25 80 9 0 21 -5 28 -12z"/>
<path d="M6156 3156 c3 -8 -4 -35 -15 -60 -11 -25 -16 -46 -12 -46 5 0 18 21
29 47 19 45 20 73 1 73 -4 0 -6 -6 -3 -14z"/>
<path d="M6281 3134 c0 -11 3 -14 6 -6 3 7 2 16 -1 19 -3 4 -6 -2 -5 -13z"/>
<path d="M6236 3087 c3 -10 9 -15 12 -12 3 3 0 11 -7 18 -10 9 -11 8 -5 -6z"/>
<path d="M6245 3040 c16 -17 20 -35 7 -26 -4 2 -8 -4 -8 -15 0 -19 1 -19 13
-3 16 21 16 31 3 39 -6 4 -8 10 -6 14 3 4 -1 8 -9 8 -13 0 -13 -3 0 -17z"/>
<path d="M6110 3020 c-6 -11 -8 -20 -6 -20 3 0 10 9 16 20 6 11 8 20 6 20 -3
0 -10 -9 -16 -20z"/>
<path d="M5526 2917 c-43 -13 -60 -37 -27 -37 11 0 33 11 48 25 32 28 32 28
-21 12z"/>
<path d="M6230 2799 c7 -11 14 -18 17 -15 8 8 -5 36 -17 36 -7 0 -7 -6 0 -21z"/>
<path d="M6203 2776 c-7 -8 -8 -18 -2 -27 7 -11 9 -10 9 4 0 10 5 15 10 12 6
-3 10 1 10 9 0 19 -11 20 -27 2z"/>
<path d="M6175 2741 c-3 -5 -1 -12 5 -16 5 -3 10 1 10 9 0 18 -6 21 -15 7z"/>
<path d="M6266 2707 c3 -10 9 -15 12 -12 3 3 0 11 -7 18 -10 9 -11 8 -5 -6z"/>
<path d="M6230 2646 c0 -2 8 -10 18 -17 15 -13 16 -12 3 4 -13 16 -21 21 -21
13z"/>
<path d="M6204 2549 c1 -7 10 -13 19 -15 9 -1 15 2 11 7 -3 5 -9 7 -14 4 -4
-3 -11 0 -13 5 -3 6 -4 5 -3 -1z"/>
<path d="M5685 2489 c-66 -44 -170 -91 -255 -115 -77 -22 -105 -25 -201 -22
l-111 3 43 -20 c64 -28 202 -27 289 4 93 33 168 75 225 126 54 48 57 55 10 24z"/>
<path d="M6166 2497 c3 -10 9 -15 12 -12 3 3 0 11 -7 18 -10 9 -11 8 -5 -6z"/>
<path d="M6196 2483 c-6 -14 -5 -15 5 -6 7 7 10 15 7 18 -3 3 -9 -2 -12 -12z"/>
<path d="M5570 2130 c-9 -6 -10 -10 -3 -10 6 0 15 5 18 10 8 12 4 12 -15 0z"/>
<path d="M5725 2120 c-3 -6 1 -7 9 -4 18 7 21 14 7 14 -6 0 -13 -4 -16 -10z"/>
<path d="M5531 2103 c-1 -16 3 -21 14 -17 8 4 15 10 15 16 0 5 -4 7 -9 4 -5
-4 -12 0 -14 6 -3 7 -6 3 -6 -9z"/>
<path d="M5696 2102 c-2 -4 -2 -13 2 -19 5 -8 15 -5 32 8 21 17 22 19 3 10
-27 -14 -36 -14 -28 -1 3 6 4 10 1 10 -3 0 -7 -4 -10 -8z"/>
<path d="M5590 2093 c0 -5 5 -15 10 -23 7 -12 9 -10 7 8 -1 19 -17 33 -17 15z"/>
<path d="M2301 5857 c-1 -13 54 -90 80 -112 l24 -20 -15 20 c-8 11 -26 34 -40
51 -14 17 -30 39 -37 50 -6 10 -12 15 -12 11z"/>
<path d="M3020 5754 c0 -17 -7 -52 -16 -78 l-17 -48 93 -92 92 -91 -6 40 c-8
44 -80 203 -120 262 l-26 38 0 -31z"/>
<path d="M4420 6556 c-55 -13 -118 -41 -155 -70 -11 -9 16 1 60 22 80 37 80
37 210 37 116 -1 137 -4 195 -26 100 -40 110 -42 44 -9 -110 55 -239 71 -354
46z"/>
<path d="M4932 6410 c37 -36 79 -80 93 -99 14 -19 25 -31 25 -25 0 5 -20 32
-45 61 -45 51 -56 70 -32 57 6 -4 -4 9 -22 29 -34 37 -55 51 -31 22 17 -20 6
-19 -28 2 -15 10 3 -12 40 -47z m19 13 c13 -16 12 -17 -3 -4 -10 7 -18 15 -18
17 0 8 8 3 21 -13z"/>
<path d="M4450 6288 c0 -5 -9 -8 -20 -8 -41 0 -135 -44 -178 -83 -24 -23 -58
-68 -75 -102 -30 -57 -32 -66 -32 -170 0 -95 3 -116 24 -158 29 -59 84 -126
125 -152 24 -15 20 -9 -19 31 -27 28 -60 70 -73 95 -14 27 -16 35 -5 19 92
-126 134 -158 245 -187 58 -15 75 -16 135 -5 37 7 75 14 83 15 8 1 24 10 35
20 10 10 25 15 32 13 7 -3 12 -1 10 3 -3 13 44 52 55 45 4 -3 7 -2 6 3 -4 10
27 54 34 48 2 -3 5 1 6 8 1 20 48 138 53 133 2 -2 4 31 4 74 0 44 -4 73 -8 67
-5 -7 -6 0 -2 16 3 18 2 26 -4 23 -12 -8 -25 30 -15 45 5 8 3 9 -6 4 -10 -6
-12 -4 -7 8 3 9 3 16 -1 14 -4 -1 -8 1 -9 6 -2 4 -14 18 -29 32 -15 14 -23 29
-18 36 4 8 3 9 -5 5 -6 -4 -14 0 -17 8 -3 9 -10 13 -15 10 -5 -3 -9 2 -9 11 0
9 -4 13 -10 10 -5 -3 -10 -1 -10 4 0 6 -3 10 -7 9 -19 -5 -53 15 -53 30 0 15
-2 15 -10 2 -6 -9 -10 -11 -10 -3 0 7 -7 10 -17 6 -10 -4 -14 -2 -10 4 5 7 -1
9 -15 5 -14 -3 -19 -2 -14 6 4 7 2 12 -3 12 -6 0 -11 -4 -11 -10 0 -5 -5 -10
-11 -10 -5 0 -8 3 -6 8 3 4 -21 7 -54 7 -32 0 -59 -3 -59 -7z m114 -32 c47
-19 58 -40 17 -31 -40 9 -134 -11 -193 -41 -79 -40 -158 -161 -158 -242 0 -40
-8 -43 -36 -15 -28 28 -30 50 -8 123 22 73 125 178 199 202 62 21 135 22 179
4z"/>
<path d="M5074 6250 c1 -7 4 -10 8 -8 3 2 19 -8 35 -22 l28 -25 -24 27 c-13
15 -27 25 -32 23 -4 -3 -10 0 -12 5 -4 7 -5 6 -3 0z"/>
<path d="M5141 6257 c24 -19 79 -44 79 -37 0 11 -52 40 -71 40 -7 0 -10 -1 -8
-3z"/>
<path d="M3790 6086 c0 -2 8 -10 18 -17 15 -13 16 -12 3 4 -13 16 -21 21 -21
13z"/>
<path d="M3764 6069 c-3 -6 -1 -16 5 -22 9 -9 10 -7 5 7 -6 15 -4 17 6 11 9
-5 11 -4 6 3 -9 15 -13 15 -22 1z"/>
<path d="M5304 5995 c3 -23 12 -26 13 -5 1 11 -2 20 -7 20 -4 0 -7 -7 -6 -15z"/>
<path d="M3789 5808 c-6 -13 -8 -20 -4 -15 5 4 18 -1 29 -10 21 -18 21 -18 4
3 -20 23 -24 39 -6 28 7 -4 8 -3 4 4 -10 17 -14 15 -27 -10z"/>
<path d="M4330 5596 c0 -2 7 -9 15 -16 9 -7 15 -8 15 -2 0 5 -7 12 -15 16 -8
3 -15 4 -15 2z"/>
<path d="M4060 5464 c0 -15 -2 -16 -9 -5 -7 11 -10 9 -16 -8 -4 -13 -4 -25 -1
-28 3 -4 6 0 6 8 0 11 2 12 9 1 6 -10 10 -7 15 13 4 15 5 30 1 33 -3 3 -5 -3
-5 -14z"/>
<path d="M4876 5385 c-9 -26 -7 -32 5 -12 6 10 9 21 6 23 -2 3 -7 -2 -11 -11z"/>
<path d="M4910 5376 c14 -18 13 -19 -2 -13 -22 8 -23 3 -4 -12 10 -9 15 -8 19
3 3 8 -2 20 -11 28 -16 12 -16 11 -2 -6z"/>
<path d="M4700 5319 c-12 -9 -12 -10 4 -5 11 4 23 1 28 -6 7 -10 9 -10 6 1 -6
20 -20 23 -38 10z"/>
<path d="M4370 5300 c0 -5 5 -10 11 -10 5 0 7 5 4 10 -3 6 -8 10 -11 10 -2 0
-4 -4 -4 -10z"/>
<path d="M4455 5290 c-16 -7 -17 -9 -3 -9 9 -1 20 4 23 9 7 11 7 11 -20 0z"/>
<path d="M1147 6409 c-10 -6 -22 -21 -27 -34 -21 -55 27 -97 80 -70 39 20 47
51 23 84 -22 29 -49 36 -76 20z"/>
<path d="M3783 6185 c0 -8 4 -12 9 -9 4 3 8 9 8 15 0 5 -4 9 -8 9 -5 0 -9 -7
-9 -15z"/>
<path d="M2932 4064 l3 -679 137 3 c157 3 250 22 349 73 167 84 283 223 341
409 33 108 33 294 0 394 -64 190 -165 312 -326 393 -103 52 -199 73 -364 80
l-142 6 2 -679z m516 354 c-6 -18 -28 -21 -28 -4 0 9 7 16 16 16 9 0 14 -5 12
-12z m73 -229 c-14 -9 -32 -23 -40 -33 -13 -16 -16 -15 -36 8 -12 14 -32 29
-45 34 -22 8 -22 9 13 30 19 13 38 29 41 38 5 12 15 8 50 -23 l44 -38 -27 -16z
m-281 -134 c0 -8 -4 -15 -10 -15 -5 0 -10 7 -10 15 0 8 5 15 10 15 6 0 10 -7
10 -15z m13 -260 c17 -36 21 -39 70 -49 18 -4 27 -13 27 -26 0 -13 -9 -22 -27
-26 -49 -10 -52 -13 -70 -51 -25 -53 -59 -53 -87 2 -18 34 -28 41 -64 49 -54
11 -53 35 3 50 30 9 44 20 59 49 27 51 65 52 89 2z"/>
<path d="M7310 2560 c0 -11 5 -20 10 -20 6 0 10 9 10 20 0 11 -4 20 -10 20 -5
0 -10 -9 -10 -20z"/>
<path d="M7232 2512 c2 -9 11 -17 21 -17 24 0 23 18 -3 27 -17 6 -21 4 -18
-10z"/>
</g>
</svg>
